Coordinates
version=1
nRows=12
nColumns=46
inDegrees=yes

Units are S.I. units (second, meters, Newtons, ...)
Angles are in degrees.

endheader
time	pelvis_tilt	pelvis_list	pelvis_rotation	pelvis_tx	pelvis_ty	pelvis_tz	bb_angle	bb_tx	bb_ty	bb_tz	hip_flexion_r	hip_adduction_r	hip_rotation_r	knee_angle_r	knee_angle_r_beta	ankle_angle_r	subtalar_angle_r	mtp_angle_r	crank_angle_r	hip_flexion_l	hip_adduction_l	hip_rotation_l	knee_angle_l	knee_angle_l_beta	ankle_angle_l	subtalar_angle_l	mtp_angle_l	crank_angle_l	lumbar_extension	lumbar_bending	lumbar_rotation	arm_flex_r	arm_add_r	arm_rot_r	elbow_flex_r	pro_sup_r	wrist_flex_r	wrist_dev_r	arm_flex_l	arm_add_l	arm_rot_l	elbow_flex_l	pro_sup_l	wrist_flex_l	wrist_dev_l
      2.50000000	    -27.16933825	     -7.95140336	    -15.07602639	      0.30953716	      1.18350059	     -0.24300445	      0.00000000	      0.50000000	      0.00000000	      0.25000000	     73.80568505	     14.46391526	     -1.16064767	     96.19036673	      1.67883861	     14.35564626	     -7.44448631	      0.00000000	      0.00000000	     25.78751970	    -18.76518183	     -7.22441168	     22.15827168	      0.38673480	    -30.89507054	     -8.64599337	      0.00000000	      0.00000000	    -56.30295182	      0.22728603	     15.87707801	     57.07917419	    -25.48441068	     37.97141285	     83.75626855	     49.96008283	      0.00000000	      0.00000000	     38.62750352	    -30.70724275	     13.91525009	     81.37154778	     48.14125630	      0.00000000	      0.00000000
      2.50500000	    -27.19186471	     -8.03937527	    -15.19952258	      0.30877391	      1.18323807	     -0.24292303	      0.00000000	      0.50000000	      0.00000000	      0.25000000	     73.26526625	     14.76159855	     -1.23153289	     94.95519529	      1.65728080	     15.84104520	     -7.95564384	      0.00000000	      0.00000000	     26.75770666	    -18.80951171	     -6.17451789	     24.56773397	      0.42878785	    -30.61048762	    -10.21887494	      0.00000000	      0.00000000	    -56.82822507	      0.25511821	     15.76474384	     57.32253996	    -25.47059385	     37.95132091	     84.77198555	     49.82415665	      0.00000000	      0.00000000	     38.02175869	    -31.12349339	     13.02695278	     82.58468100	     48.10877607	      0.00000000	      0.00000000
      2.51000000	    -27.19398896	     -8.08537794	    -15.34688095	      0.30805379	      1.18271499	     -0.24285197	      0.00000000	      0.50000000	      0.00000000	      0.25000000	     72.69827336	     15.03816723	     -1.32177465	     93.65932307	      1.63466356	     17.05575928	     -8.86187649	      0.00000000	      0.00000000	     27.74818082	    -18.80837618	     -5.31236507	     27.03589027	      0.47186530	    -30.39259317	    -11.83843627	      0.00000000	      0.00000000	    -57.30320190	      0.33238094	     15.88824306	     57.62014957	    -25.49626396	     38.02012877	     85.66440592	     49.99948829	      0.00000000	      0.00000000	     37.66335104	    -31.53941363	     12.49005124	     83.30835011	     48.24664042	      0.00000000	      0.00000000
      2.51500000	    -27.15359905	     -8.01490930	    -15.46863316	      0.30747613	      1.18215469	     -0.24291031	      0.00000000	      0.50000000	      0.00000000	      0.25000000	     72.07656053	     15.23542122	     -1.30599888	     92.31604614	      1.61121896	     18.16650516	     -9.73366710	      0.00000000	      0.00000000	     28.72045070	    -18.68378931	     -4.65702444	     29.50047946	      0.51488050	    -30.25064216	    -13.29422788	      0.00000000	      0.00000000	    -57.85280528	      0.26914444	     15.74150677	     57.77372100	    -25.69143418	     37.95951210	     87.07487564	     50.25870292	      0.00000000	      0.00000000	     36.97613126	    -31.98550813	     11.53936181	     84.68319288	     48.49013669	      0.00000000	      0.00000000
      2.52000000	    -26.91200719	     -7.78400416	    -15.71586308	      0.30710437	      1.18170155	     -0.24275964	      0.00000000	      0.50000000	      0.00000000	      0.25000000	     71.25865596	     15.50618308	     -0.97897043	     91.01098107	      1.58844128	     19.33242779	    -10.35931786	      0.00000000	      0.00000000	     29.35554606	    -18.44722154	     -4.40629505	     31.81398631	      0.55525881	    -30.14012393	    -14.56633126	      0.00000000	      0.00000000	    -58.41868922	     -0.02502002	     15.66685042	     57.98504689	    -25.68276206	     37.79090806	     87.53870003	     50.32125679	      0.00000000	      0.00000000	     36.94422172	    -32.20431645	     11.23465843	     84.93102817	     48.52130845	      0.00000000	      0.00000000
      2.52500000	    -27.00919483	     -7.68461711	    -15.74897258	      0.30657932	      1.18062757	     -0.24316585	      0.00000000	      0.50000000	      0.00000000	      0.25000000	     70.83490904	     15.59951767	     -0.99598764	     89.64697333	      1.56463485	     20.02842560	    -11.32405886	      0.00000000	      0.00000000	     30.52707682	    -18.22790422	     -3.60565495	     34.23903576	      0.59758391	    -30.19013933	    -15.88734060	      0.00000000	      0.00000000	    -58.82509448	      0.05857993	     15.50586493	     57.75629564	    -25.77244597	     37.27481667	     89.37465064	     50.59264532	      0.00000000	      0.00000000	     35.96514693	    -32.67477568	     10.15706071	     86.48939189	     48.76334895	      0.00000000	      0.00000000
      2.53000000	    -26.90235058	     -7.39846078	    -15.81003914	      0.30611002	      1.17955469	     -0.24356461	      0.00000000	      0.50000000	      0.00000000	      0.25000000	     70.30899137	     15.57641928	     -0.77346147	     88.41863716	      1.54319634	     20.57282005	    -12.13182774	      0.00000000	      0.00000000	     31.44070473	    -17.82922818	     -3.08976117	     36.55622851	      0.63802655	    -30.19884537	    -16.91122127	      0.00000000	      0.00000000	    -59.31341047	     -0.08116245	     15.24673774	     57.88622058	    -26.09922693	     37.08611063	     90.69393070	     50.80401195	      0.00000000	      0.00000000	     35.35612735	    -32.94495552	      9.29279695	     87.63656171	     48.94217299	      0.00000000	      0.00000000
      2.53500000	    -26.73807971	     -7.00429399	    -15.89525342	      0.30559253	      1.17831128	     -0.24406347	      0.00000000	      0.50000000	      0.00000000	      0.25000000	     69.78715217	     15.54133106	     -0.35946214	     87.25888661	      1.52295487	     20.99011667	    -12.68109328	      0.00000000	      0.00000000	     32.28287130	    -17.33631649	     -2.69136982	     38.84180265	      0.67791734	    -30.12484567	    -17.70784769	      0.00000000	      0.00000000	    -59.71803271	     -0.27333712	     15.01256941	     58.07105932	    -26.27333096	     36.88014345	     91.67607389	     50.94992823	      0.00000000	      0.00000000	     35.02567562	    -33.17823188	      8.73123261	     88.29408923	     49.04027341	      0.00000000	      0.00000000
      2.54000000	    -26.74548529	     -6.69865759	    -15.90653134	      0.30487784	      1.17658160	     -0.24466438	      0.00000000	      0.50000000	      0.00000000	      0.25000000	     69.51745945	     15.44716064	     -0.09948188	     86.13153040	      1.50327880	     21.29256183	    -13.12334863	      0.00000000	      0.00000000	     33.36124393	    -16.91245986	     -2.01121319	     41.15852162	      0.71835172	    -29.99946982	    -18.28092294	      0.00000000	      0.00000000	    -60.03092139	     -0.33177093	     14.71455363	     57.95932679	    -26.58843488	     36.56921015	     93.17770100	     51.17782964	      0.00000000	      0.00000000	     34.22130752	    -33.40833394	      7.81435751	     89.59361112	     49.24806025	      0.00000000	      0.00000000
      2.54500000	    -26.69026724	     -6.37917888	    -15.90340166	      0.30421899	      1.17470580	     -0.24536761	      0.00000000	      0.50000000	      0.00000000	      0.25000000	     69.23516474	     15.31474552	      0.21015332	     85.07343557	      1.48481156	     21.49962372	    -13.39860564	      0.00000000	      0.00000000	     34.34089183	    -16.48374991	     -1.46481898	     43.41778561	      0.75778331	    -29.80597862	    -18.71141506	      0.00000000	      0.00000000	    -60.32326834	     -0.35437310	     14.44115591	     57.98703671	    -26.78050393	     36.27296043	     94.33452009	     51.34638766	      0.00000000	      0.00000000	     33.58813249	    -33.61207867	      7.01362871	     90.56971865	     49.41139734	      0.00000000	      0.00000000
      2.55000000	    -26.40565161	     -5.95262937	    -15.98026393	      0.30377514	      1.17293429	     -0.24606499	      0.00000000	      0.50000000	      0.00000000	      0.25000000	     68.75867155	     15.18843696	      0.76678195	     84.10910387	      1.46798079	     21.59632723	    -13.52132309	      0.00000000	      0.00000000	     34.96044187	    -15.98145808	     -1.22306172	     45.52992921	      0.79464717	    -29.65658545	    -19.08003026	      0.00000000	      0.00000000	    -60.66235382	     -0.52786866	     14.20082407	     58.17227350	    -26.86991453	     36.07856716	     94.66891058	     51.38027258	      0.00000000	      0.00000000	     33.50931877	    -33.67843095	      6.86056328	     90.68666172	     49.42727699	      0.00000000	      0.00000000
      2.55500000	    -26.53256938	     -5.74693472	    -15.82532311	      0.30296284	      1.17028445	     -0.24723265	      0.00000000	      0.50000000	      0.00000000	      0.25000000	     68.77345065	     14.96787078	      0.99747867	     83.13786006	      1.45102939	     21.48742809	    -13.56596608	      0.00000000	      0.00000000	     36.22394223	    -15.60413926	     -0.47016191	     47.89520044	      0.83592894	    -29.12248446	    -19.02150526	      0.00000000	      0.00000000	    -60.73874618	     -0.25564975	     14.02807803	     58.07527202	    -27.14253200	     35.75990571	     96.04433136	     51.57566037	      0.00000000	      0.00000000	     32.83378235	    -33.91560283	      6.30186784	     91.50338557	     49.55087510	      0.00000000	      0.00000000
